<?xml version="1.0" encoding="UTF-8" standalone="no"?>
<svg xmlns="http://www.w3.org/2000/svg" viewBox="0 0 512 512" width="512" height="512">
  <defs>
    <linearGradient id="gradient1" x1="0%" y1="0%" x2="100%" y2="100%">
      <stop offset="0%" style="stop-color:#0d6efd;stop-opacity:1" />
      <stop offset="100%" style="stop-color:#0b5ed7;stop-opacity:1" />
    </linearGradient>
    <linearGradient id="gradient2" x1="0%" y1="0%" x2="100%" y2="100%">
      <stop offset="0%" style="stop-color:#ffffff;stop-opacity:1" />
      <stop offset="100%" style="stop-color:#f8f9fa;stop-opacity:1" />
    </linearGradient>
  </defs>
  
  <!-- Background Circle -->
  <circle cx="256" cy="256" r="250" fill="url(#gradient1)" />
  
  <!-- Inner Circle -->
  <circle cx="256" cy="256" r="210" fill="url(#gradient2)" />
  
  <!-- Brain Icon -->
  <g transform="translate(118, 100) scale(1.4)">
    <path d="M96 72c0-13.255-10.745-24-24-24s-24 10.745-24 24 10.745 24 24 24 24-10.745 24-24zm128 0c0-13.255-10.745-24-24-24s-24 10.745-24 24 10.745 24 24 24 24-10.745 24-24zm-152 0c0-8.284 6.716-15 15-15s15 6.716 15 15-6.716 15-15 15-15-6.716-15-15zm128 0c0-8.284 6.716-15 15-15s15 6.716 15 15-6.716 15-15 15-15-6.716-15-15zm-64 56c-26.51 0-48 21.49-48 48s21.49 48 48 48 48-21.49 48-48-21.49-48-48-48zm0 80c-17.673 0-32-14.327-32-32s14.327-32 32-32 32 14.327 32 32-14.327 32-32 32zm-96-80v8h32v-8c0-35.29 28.71-64 64-64 35.29 0 64 28.71 64 64v8h32v-8c0-53.02-42.98-96-96-96s-96 42.98-96 96z" fill="#0d6efd"/>
  </g>
  
  <!-- AI Text -->
  <text x="256" y="390" font-family="Arial, sans-serif" font-weight="bold" font-size="60" text-anchor="middle" fill="#0d6efd">AI-BUDDY</text>
</svg>